TITLE ""
FILE "LR_black_phrase_E_S07.mp3" MP3
  TRACK 01 AUDIO
    TITLE "LR_black_phrase_E_S07_001"
    INDEX 01 00:00:00
  TRACK 02 AUDIO
    TITLE "LR_black_phrase_E_S07_002"
    INDEX 01 00:00:16
  TRACK 03 AUDIO
    TITLE "LR_black_phrase_E_S07_003"
    INDEX 01 00:01:53
  TRACK 04 AUDIO
    TITLE "LR_black_phrase_E_S07_004"
    INDEX 01 00:02:07
  TRACK 05 AUDIO
    TITLE "LR_black_phrase_E_S07_005"
    INDEX 01 00:05:04
  TRACK 06 AUDIO
    TITLE "LR_black_phrase_E_S07_006"
    INDEX 01 00:05:57
  TRACK 07 AUDIO
    TITLE "LR_black_phrase_E_S07_007"
    INDEX 01 00:08:53
  TRACK 08 AUDIO
    TITLE "LR_black_phrase_E_S07_008"
    INDEX 01 00:09:58
  TRACK 09 AUDIO
    TITLE "LR_black_phrase_E_S07_009"
    INDEX 01 00:11:08
  TRACK 10 AUDIO
    TITLE "LR_black_phrase_E_S07_010"
    INDEX 01 00:11:39
  TRACK 11 AUDIO
    TITLE "LR_black_phrase_E_S07_011"
    INDEX 01 00:13:48
  TRACK 12 AUDIO
    TITLE "LR_black_phrase_E_S07_012"
    INDEX 01 00:14:26
  TRACK 13 AUDIO
    TITLE "LR_black_phrase_E_S07_013"
    INDEX 01 00:16:39
  TRACK 14 AUDIO
    TITLE "LR_black_phrase_E_S07_014"
    INDEX 01 00:17:42
  TRACK 15 AUDIO
    TITLE "LR_black_phrase_E_S07_015"
    INDEX 01 00:19:02
  TRACK 16 AUDIO
    TITLE "LR_black_phrase_E_S07_016"
    INDEX 01 00:19:25
  TRACK 17 AUDIO
    TITLE "LR_black_phrase_E_S07_017"
    INDEX 01 00:21:50
  TRACK 18 AUDIO
    TITLE "LR_black_phrase_E_S07_018"
    INDEX 01 00:22:22
  TRACK 19 AUDIO
    TITLE "LR_black_phrase_E_S07_019"
    INDEX 01 00:24:48
  TRACK 20 AUDIO
    TITLE "LR_black_phrase_E_S07_020"
    INDEX 01 00:25:46
  TRACK 21 AUDIO
    TITLE "LR_black_phrase_E_S07_021"
    INDEX 01 00:26:63
  TRACK 22 AUDIO
    TITLE "LR_black_phrase_E_S07_022"
    INDEX 01 00:27:09
  TRACK 23 AUDIO
    TITLE "LR_black_phrase_E_S07_023"
    INDEX 01 00:29:37
  TRACK 24 AUDIO
    TITLE "LR_black_phrase_E_S07_024"
    INDEX 01 00:30:11
  TRACK 25 AUDIO
    TITLE "LR_black_phrase_E_S07_025"
    INDEX 01 00:32:42
  TRACK 26 AUDIO
    TITLE "LR_black_phrase_E_S07_026"
    INDEX 01 00:33:45
  TRACK 27 AUDIO
    TITLE "LR_black_phrase_E_S07_027"
    INDEX 01 00:34:64
  TRACK 28 AUDIO
    TITLE "LR_black_phrase_E_S07_028"
    INDEX 01 00:35:16
  TRACK 29 AUDIO
    TITLE "LR_black_phrase_E_S07_029"
    INDEX 01 00:38:15
  TRACK 30 AUDIO
    TITLE "LR_black_phrase_E_S07_030"
    INDEX 01 00:38:72
  TRACK 31 AUDIO
    TITLE "LR_black_phrase_E_S07_031"
    INDEX 01 00:41:72
  TRACK 32 AUDIO
    TITLE "LR_black_phrase_E_S07_032"
    INDEX 01 00:43:02
  TRACK 33 AUDIO
    TITLE "LR_black_phrase_E_S07_033"
    INDEX 01 00:44:21
  TRACK 34 AUDIO
    TITLE "LR_black_phrase_E_S07_034"
    INDEX 01 00:44:55
  TRACK 35 AUDIO
    TITLE "LR_black_phrase_E_S07_035"
    INDEX 01 00:47:27
  TRACK 36 AUDIO
    TITLE "LR_black_phrase_E_S07_036"
    INDEX 01 00:48:13
  TRACK 37 AUDIO
    TITLE "LR_black_phrase_E_S07_037"
    INDEX 01 00:50:57
  TRACK 38 AUDIO
    TITLE "LR_black_phrase_E_S07_038"
    INDEX 01 00:51:66
  TRACK 39 AUDIO
    TITLE "LR_black_phrase_E_S07_039"
    INDEX 01 00:53:24
  TRACK 40 AUDIO
    TITLE "LR_black_phrase_E_S07_040"
    INDEX 01 00:53:48
  TRACK 41 AUDIO
    TITLE "LR_black_phrase_E_S07_041"
    INDEX 01 00:55:45
  TRACK 42 AUDIO
    TITLE "LR_black_phrase_E_S07_042"
    INDEX 01 00:56:17
  TRACK 43 AUDIO
    TITLE "LR_black_phrase_E_S07_043"
    INDEX 01 00:58:16
  TRACK 44 AUDIO
    TITLE "LR_black_phrase_E_S07_044"
    INDEX 01 00:59:17
  TRACK 45 AUDIO
    TITLE "LR_black_phrase_E_S07_045"
    INDEX 01 01:00:40
  TRACK 46 AUDIO
    TITLE "LR_black_phrase_E_S07_046"
    INDEX 01 01:00:60
  TRACK 47 AUDIO
    TITLE "LR_black_phrase_E_S07_047"
    INDEX 01 01:02:64
  TRACK 48 AUDIO
    TITLE "LR_black_phrase_E_S07_048"
    INDEX 01 01:03:34
  TRACK 49 AUDIO
    TITLE "LR_black_phrase_E_S07_049"
    INDEX 01 01:05:39
  TRACK 50 AUDIO
    TITLE "LR_black_phrase_E_S07_050"
    INDEX 01 01:06:43
  TRACK 51 AUDIO
    TITLE "LR_black_phrase_E_S07_051"
    INDEX 01 01:08:08
  TRACK 52 AUDIO
    TITLE "LR_black_phrase_E_S07_052"
    INDEX 01 01:08:39
  TRACK 53 AUDIO
    TITLE "LR_black_phrase_E_S07_053"
    INDEX 01 01:10:66
  TRACK 54 AUDIO
    TITLE "LR_black_phrase_E_S07_054"
    INDEX 01 01:11:46
  TRACK 55 AUDIO
    TITLE "LR_black_phrase_E_S07_055"
    INDEX 01 01:13:74
  TRACK 56 AUDIO
    TITLE "LR_black_phrase_E_S07_056"
    INDEX 01 01:15:02
  TRACK 57 AUDIO
    TITLE "LR_black_phrase_E_S07_057"
    INDEX 01 01:16:21
  TRACK 58 AUDIO
    TITLE "LR_black_phrase_E_S07_058"
    INDEX 01 01:16:51
  TRACK 59 AUDIO
    TITLE "LR_black_phrase_E_S07_059"
    INDEX 01 01:18:32
  TRACK 60 AUDIO
    TITLE "LR_black_phrase_E_S07_060"
    INDEX 01 01:19:14
  TRACK 61 AUDIO
    TITLE "LR_black_phrase_E_S07_061"
    INDEX 01 01:20:74
  TRACK 62 AUDIO
    TITLE "LR_black_phrase_E_S07_062"
    INDEX 01 01:22:04
  TRACK 63 AUDIO
    TITLE "LR_black_phrase_E_S07_063"
    INDEX 01 01:23:23
  TRACK 64 AUDIO
    TITLE "LR_black_phrase_E_S07_064"
    INDEX 01 01:23:49
  TRACK 65 AUDIO
    TITLE "LR_black_phrase_E_S07_065"
    INDEX 01 01:25:75
  TRACK 66 AUDIO
    TITLE "LR_black_phrase_E_S07_066"
    INDEX 01 01:26:47
  TRACK 67 AUDIO
    TITLE "LR_black_phrase_E_S07_067"
    INDEX 01 01:28:75
  TRACK 68 AUDIO
    TITLE "LR_black_phrase_E_S07_068"
    INDEX 01 01:29:69
  TRACK 69 AUDIO
    TITLE "LR_black_phrase_E_S07_069"
    INDEX 01 01:30:68
  TRACK 70 AUDIO
    TITLE "LR_black_phrase_E_S07_070"
    INDEX 01 01:31:11
  TRACK 71 AUDIO
    TITLE "LR_black_phrase_E_S07_071"
    INDEX 01 01:32:75
  TRACK 72 AUDIO
    TITLE "LR_black_phrase_E_S07_072"
    INDEX 01 01:33:45
  TRACK 73 AUDIO
    TITLE "LR_black_phrase_E_S07_073"
    INDEX 01 01:35:32
  TRACK 74 AUDIO
    TITLE "LR_black_phrase_E_S07_074"
    INDEX 01 01:36:28
  TRACK 75 AUDIO
    TITLE "LR_black_phrase_E_S07_075"
    INDEX 01 01:37:39
  TRACK 76 AUDIO
    TITLE "LR_black_phrase_E_S07_076"
    INDEX 01 01:37:69
  TRACK 77 AUDIO
    TITLE "LR_black_phrase_E_S07_077"
    INDEX 01 01:40:26
  TRACK 78 AUDIO
    TITLE "LR_black_phrase_E_S07_078"
    INDEX 01 01:41:10
  TRACK 79 AUDIO
    TITLE "LR_black_phrase_E_S07_079"
    INDEX 01 01:43:38
  TRACK 80 AUDIO
    TITLE "LR_black_phrase_E_S07_080"
    INDEX 01 01:44:45
  TRACK 81 AUDIO
    TITLE "LR_black_phrase_E_S07_081"
    INDEX 01 01:45:58
  TRACK 82 AUDIO
    TITLE "LR_black_phrase_E_S07_082"
    INDEX 01 01:46:13
  TRACK 83 AUDIO
    TITLE "LR_black_phrase_E_S07_083"
    INDEX 01 01:47:75
  TRACK 84 AUDIO
    TITLE "LR_black_phrase_E_S07_084"
    INDEX 01 01:48:55
  TRACK 85 AUDIO
    TITLE "LR_black_phrase_E_S07_085"
    INDEX 01 01:50:42
  TRACK 86 AUDIO
    TITLE "LR_black_phrase_E_S07_086"
    INDEX 01 01:51:43
  TRACK 87 AUDIO
    TITLE "LR_black_phrase_E_S07_087"
    INDEX 01 01:52:49
  TRACK 88 AUDIO
    TITLE "LR_black_phrase_E_S07_088"
    INDEX 01 01:52:72
  TRACK 89 AUDIO
    TITLE "LR_black_phrase_E_S07_089"
    INDEX 01 01:55:43
  TRACK 90 AUDIO
    TITLE "LR_black_phrase_E_S07_090"
    INDEX 01 01:56:15
  TRACK 91 AUDIO
    TITLE "LR_black_phrase_E_S07_091"
    INDEX 01 01:58:63
  TRACK 92 AUDIO
    TITLE "LR_black_phrase_E_S07_092"
    INDEX 01 01:59:60
  TRACK 93 AUDIO
    TITLE "LR_black_phrase_E_S07_093"
    INDEX 01 02:01:06
  TRACK 94 AUDIO
    TITLE "LR_black_phrase_E_S07_094"
    INDEX 01 02:01:22
  TRACK 95 AUDIO
    TITLE "LR_black_phrase_E_S07_095"
    INDEX 01 02:03:13
  TRACK 96 AUDIO
    TITLE "LR_black_phrase_E_S07_096"
    INDEX 01 02:03:58
  TRACK 97 AUDIO
    TITLE "LR_black_phrase_E_S07_097"
    INDEX 01 02:05:47
  TRACK 98 AUDIO
    TITLE "LR_black_phrase_E_S07_098"
    INDEX 01 02:06:49
  TRACK 99 AUDIO
    TITLE "LR_black_phrase_E_S07_099"
    INDEX 01 02:07:58
  TRACK 100 AUDIO
    TITLE "LR_black_phrase_E_S07_100"
    INDEX 01 02:08:12
  TRACK 101 AUDIO
    TITLE "LR_black_phrase_E_S07_101"
    INDEX 01 02:10:33
  TRACK 102 AUDIO
    TITLE "LR_black_phrase_E_S07_102"
    INDEX 01 02:11:13
  TRACK 103 AUDIO
    TITLE "LR_black_phrase_E_S07_103"
    INDEX 01 02:13:31
  TRACK 104 AUDIO
    TITLE "LR_black_phrase_E_S07_104"
    INDEX 01 02:14:36
  TRACK 105 AUDIO
    TITLE "LR_black_phrase_E_S07_105"
    INDEX 01 02:15:52
  TRACK 106 AUDIO
    TITLE "LR_black_phrase_E_S07_106"
    INDEX 01 02:16:04
  TRACK 107 AUDIO
    TITLE "LR_black_phrase_E_S07_107"
    INDEX 01 02:18:34
  TRACK 108 AUDIO
    TITLE "LR_black_phrase_E_S07_108"
    INDEX 01 02:19:12
  TRACK 109 AUDIO
    TITLE "LR_black_phrase_E_S07_109"
    INDEX 01 02:21:42
  TRACK 110 AUDIO
    TITLE "LR_black_phrase_E_S07_110"
    INDEX 01 02:22:42
  TRACK 111 AUDIO
    TITLE "LR_black_phrase_E_S07_111"
    INDEX 01 02:23:53
  TRACK 112 AUDIO
    TITLE "LR_black_phrase_E_S07_112"
    INDEX 01 02:23:75
  TRACK 113 AUDIO
    TITLE "LR_black_phrase_E_S07_113"
    INDEX 01 02:26:18
  TRACK 114 AUDIO
    TITLE "LR_black_phrase_E_S07_114"
    INDEX 01 02:26:63
  TRACK 115 AUDIO
    TITLE "LR_black_phrase_E_S07_115"
    INDEX 01 02:29:05
  TRACK 116 AUDIO
    TITLE "LR_black_phrase_E_S07_116"
    INDEX 01 02:30:02
  TRACK 117 AUDIO
    TITLE "LR_black_phrase_E_S07_117"
    INDEX 01 02:31:33
  TRACK 118 AUDIO
    TITLE "LR_black_phrase_E_S07_118"
    INDEX 01 02:31:56
  TRACK 119 AUDIO
    TITLE "LR_black_phrase_E_S07_119"
    INDEX 01 02:34:12
  TRACK 120 AUDIO
    TITLE "LR_black_phrase_E_S07_120"
    INDEX 01 02:34:61
  TRACK 121 AUDIO
    TITLE "LR_black_phrase_E_S07_121"
    INDEX 01 02:37:14
